# xmcd CD database file
#
# Track frame offsets:
#	150
#	16809
#	41751
#	76555
#	99957
#	139150
#	164840
#	202941
#	228582
#	247820
#	257799
#
# Disc length: 3959 seconds
#
# Revision: 0
# Processed by: cddbd v1.5.2PL0 Copyright (c) Steve Scherf et al.
# Submitted via: CDex 1.70beta2
#
DISCID=830f750b
DTITLE=Camilleri, Andrea - Die Spur des Fuchses
DYEAR=2010
DGENRE=Hoerbuch
TTITLE0=01 Die Spur des Fuchses
TTITLE1=02 Die Spur des Fuchses
TTITLE2=03 Die Spur des Fuchses
TTITLE3=04 Die Spur des Fuchses
TTITLE4=05 Die Spur des Fuchses
TTITLE5=06 Die Spur des Fuchses
TTITLE6=07 Die Spur des Fuchses
TTITLE7=08 Die Spur des Fuchses
TTITLE8=09 Die Spur des Fuchses
TTITLE9=10 Die Spur des Fuchses
TTITLE10=11 Die Spur des Fuchses
EXTD=YEAR: 2010
EXTT0=
EXTT1=
EXTT2=
EXTT3=
EXTT4=
EXTT5=
EXTT6=
EXTT7=
EXTT8=
EXTT9=
EXTT10=
PLAYORDER=
